<?xml version="1.0" standalone="no"?>
<!DOCTYPE svg PUBLIC "-//W3C//DTD SVG 20010904//EN"
 "http://www.w3.org/TR/2001/REC-SVG-20010904/DTD/svg10.dtd">
<svg version="1.0" xmlns="http://www.w3.org/2000/svg"
 width="300.000000pt" height="326.000000pt" viewBox="0 0 300.000000 326.000000"
 preserveAspectRatio="xMidYMid meet">
<metadata>
Created by potrace 1.10, written by Peter Selinger 2001-2011
</metadata>
<g transform="translate(0.000000,326.000000) scale(0.100000,-0.100000)"
fill="#000000" stroke="none">
<path d="M1462 3088 c-101 -131 -197 -196 -302 -205 l-57 -6 33 -55 c43 -71
70 -142 100 -262 23 -94 55 -311 47 -319 -8 -10 -212 22 -322 50 -111 28 -248
84 -283 116 -17 15 -18 14 -18 -13 0 -54 -29 -137 -66 -192 -32 -45 -112 -120
-187 -174 -16 -12 -10 -19 59 -73 43 -33 95 -83 116 -112 41 -54 78 -152 78
-205 l0 -29 30 21 c50 36 155 79 257 105 101 27 270 55 324 55 l31 0 -6 -382
c-8 -419 -21 -564 -66 -744 -27 -108 -86 -254 -109 -268 -26 -17 -10 -33 36
-35 54 -2 137 -37 192 -81 21 -16 65 -63 97 -105 l59 -76 30 38 c16 21 61 70
100 109 77 77 147 113 231 116 24 1 44 4 44 6 0 2 -9 17 -20 32 -53 74 -107
233 -134 391 -29 169 -35 289 -36 647 l0 352 28 0 c52 0 227 -30 322 -55 97
-26 241 -88 261 -112 20 -24 29 -14 29 32 0 80 35 152 114 231 39 39 88 84
110 100 l38 30 -56 43 c-135 104 -206 214 -206 316 0 25 -2 45 -5 45 -3 0 -23
-13 -45 -29 -78 -56 -245 -107 -460 -140 l-120 -18 0 25 c0 51 32 240 56 332
25 97 86 241 111 261 23 20 14 29 -27 29 -98 0 -212 71 -302 189 -29 38 -56
70 -59 70 -4 1 -25 -23 -47 -51z m114 -87 c74 -79 135 -123 205 -146 27 -9 49
-21 49 -26 0 -5 -9 -27 -19 -48 -46 -89 -89 -257 -112 -434 -12 -96 -12 -97
11 -122 29 -31 54 -32 212 -5 125 22 246 56 337 96 29 13 55 24 56 24 2 0 10
-23 19 -50 26 -78 71 -144 148 -213 l70 -63 -65 -57 c-75 -65 -127 -139 -151
-214 -10 -29 -19 -53 -22 -53 -2 0 -41 16 -87 35 -103 42 -261 81 -397 97
l-103 12 -24 -29 -25 -28 5 -411 c3 -322 8 -434 21 -516 23 -142 50 -246 93
-352 19 -49 33 -91 31 -92 -1 -1 -30 -12 -63 -26 -84 -33 -138 -72 -193 -140
-26 -32 -53 -59 -61 -59 -8 -1 -45 33 -83 74 -66 71 -107 98 -220 143 l-27 11
30 71 c36 86 73 224 94 350 19 121 36 495 32 756 -3 272 6 264 -238 223 -128
-22 -285 -67 -353 -101 -38 -19 -40 -20 -53 -2 -7 10 -13 24 -13 32 0 37 -68
138 -137 202 -40 37 -73 71 -73 75 0 4 32 37 70 72 75 69 110 121 136 197 9
25 20 48 25 51 4 3 30 -5 56 -19 96 -48 381 -116 491 -116 44 0 72 30 72 78 0
116 -51 345 -106 476 -19 44 -33 81 -31 82 1 1 28 11 61 23 69 24 143 79 209
155 27 31 51 56 54 56 3 0 34 -31 69 -69z"/>
</g>
</svg>
